#!OML:ASF I:\Actors\actors\Patient Classification 2\Patient 1\Session 1\actor1.ASF
:FULLY-SPECIFIED
:DEGREES
785
root -0.881062 18.6714 6.0074 0.953202 -4.10631 -3.83024
lowerback 8.63264 0.125046 0.223949
upperback -1.94762 0.315374 1.84766
thorax -6.90622 0.186972 1.76841
lowerneck -12.5691 0.0357784 -2.37611
upperneck 25.7456 -0.0819937 2.5364
head 10.2836 0.0202171 1.29286
rclavicle -2.57692e-015 8.08805e-015
rhumerus -49.072 -11.1894 -73.121
rradius 53.1997
rwrist 11.8898
rhand 2.50234 -42.1456
rfingers 7.12502
rthumb 27.9849 -70.0794
lclavicle -2.57692e-015 8.08805e-015
lhumerus -43.1156 11.7576 68.3913
lradius 106.095
lwrist 31.9233
lhand -19.1519 -38.2973
lfingers 7.12502
lthumb 7.15849 -8.43833
rfemur 8.01701 3.5221 18.4439
rtibia 1.27222e-014
rfoot -16.3851 -8.39446
rtoes -5.00105
lfemur -3.05328 -4.83086 -10.1955
ltibia 22.6468
lfoot -24.2124 15.2856
ltoes -55.9989
786
root -0.877927 18.6726 6.01356 1.01982 -4.08561 -3.7667
lowerback 8.4441 0.089134 0.193885
upperback -1.98009 0.26071 1.82619
thorax -6.8309 0.160741 1.7701
lowerneck -12.6401 0.0489576 -2.40941
upperneck 25.3452 -0.0724593 2.62875
head 10.1514 0.0336744 1.32806
rclavicle -7.41647e-015 -1.25483e-015
rhumerus -49.1111 -11.1134 -73.2463
rradius 53.1966
rwrist 11.9255
rhand 4.06089 -43.5077
rfingers 7.12502
rthumb 29.4738 -71.1889
lclavicle -7.41647e-015 -1.25483e-015
lhumerus -43.5387 12.1911 68.678
lradius 105.674
lwrist 31.2795
lhand -19.3049 -39.3117
lfingers 7.12502
lthumb 7.01083 -9.44778
rfemur 7.96082 3.49964 18.3561
rtibia 0
rfoot -16.3785 -8.40428
rtoes -4.86579
lfemur -3.05712 -5.02563 -10.3036
ltibia 22.5721
lfoot -24.3156 15.4362
ltoes -55.9674
787
root -0.874384 18.6733 6.02028 1.06771 -4.04448 -3.70138
lowerback 8.25681 0.0577402 0.185094
upperback -2.01425 0.213195 1.78336
thorax -6.75806 0.136656 1.73615
lowerneck -12.6878 0.0522367 -2.3163
upperneck 24.9754 -0.07542 2.59901
head 10.0272 0.0389553 1.29724
rclavicle -1.94444e-015 1.48592e-014
rhumerus -49.1676 -11.1082 -73.3561
rradius 53.1629
rwrist 12.0366
rhand 4.88143 -44.1626
rfingers 7.12502
rthumb 30.2569 -71.7031
lclavicle -1.94444e-015 1.48592e-014
lhumerus -43.9524 12.4971 68.9537
lradius 105.147
lwrist 30.6106
lhand -19.5164 -40.3516
lfingers 7.12502
lthumb 6.80663 -10.481
rfemur 7.93269 3.45726 18.265
rtibia -4.77083e-015
rfoot -16.3742 -8.39799
rtoes -4.87307
lfemur -3.06436 -5.15167 -10.4076
ltibia 22.5152
lfoot -24.3618 15.5657
ltoes -55.9933
788
root -0.871586 18.6742 6.02868 1.11611 -4.01748 -3.67128
lowerback 8.05073 0.0458258 0.216587
upperback -2.05701 0.196707 1.75167
thorax -6.68441 0.126437 1.68675
lowerneck -12.7277 0.0204841 -2.36862
upperneck 24.6584 -0.123683 2.68268
head 9.92232 0.0223484 1.32624
rclavicle 3.95575e-015 -6.08856e-015
rhumerus -49.2385 -11.1511 -73.431
rradius 53.0985
rwrist 12.1438
rhand 4.0938 -43.5445
rfingers 7.12502
rthumb 29.5052 -71.2203
lclavicle 3.95575e-015 -6.08856e-015
lhumerus -44.2994 12.8057 69.266
lradius 104.482
lwrist 29.818
lhand -19.7808 -41.5259
lfingers 7.12502
lthumb 6.55141 -11.6472
rfemur 7.9083 3.42907 18.2171
rtibia -6.36111e-015
rfoot -16.3627 -8.4014
rtoes -4.9287
lfemur -3.07237 -5.24516 -10.4646
ltibia 22.471
lfoot -24.3976 15.6346
ltoes -55.9868
789
root -0.868047 18.6748 6.03952 1.15079 -4.00597 -3.67954
lowerback 7.84959 0.0351773 0.286714
upperback -2.11158 0.188125 1.75204
thorax -6.62639 0.119351 1.64827
lowerneck -12.6741 -0.0157512 -2.47383
upperneck 24.3064 -0.170496 2.78054
head 9.78756 0.0025771 1.36847
rclavicle 8.62848e-015 -1.07219e-014
rhumerus -49.3465 -11.1299 -73.4894
rradius 53.0671
rwrist 12.1136
rhand 2.57906 -42.4261
rfingers 7.12502
rthumb 28.0582 -70.3479
lclavicle 8.62848e-015 -1.07219e-014
lhumerus -44.6656 13.1721 69.5797
lradius 103.764
lwrist 28.8749
lhand -20.0754 -42.7438
lfingers 7.12502
lthumb 6.26704 -12.8565
rfemur 7.90323 3.41731 18.2119
rtibia 2.38542e-014
rfoot -16.3453 -8.42787
rtoes -5.08532
lfemur -3.04485 -5.35177 -10.4863
ltibia 22.4207
lfoot -24.4718 15.6965
ltoes -55.9411
790
root -0.862989 18.6736 6.05166 1.14381 -3.99597 -3.65544
lowerback 7.67764 0.0241616 0.331149
upperback -2.16052 0.176477 1.75269
thorax -6.57917 0.111831 1.62504
lowerneck -12.5547 -0.0223429 -2.39344
upperneck 23.9154 -0.166371 2.66941
head 9.62596 -0.000524894 1.31164
rclavicle -4.04291e-015 3.71479e-015
rhumerus -49.4632 -11.0972 -73.5357
rradius 53.039
rwrist 12.0513
rhand 2.52262 -42.4557
rfingers 7.12502
rthumb 28.0043 -70.3863
lclavicle -4.04291e-015 3.71479e-015
lhumerus -45.0468 13.5126 69.9048
lradius 102.996
lwrist 27.8901
lhand -20.4837 -43.8337
lfingers 7.12502
lthumb 5.87283 -13.9351
rfemur 7.95079 3.40843 18.1641
rtibia -2.06736e-014
rfoot -16.3429 -8.4005
rtoes -5.0376
lfemur -2.95729 -5.55925 -10.5705
ltibia 22.3664
lfoot -24.6139 15.8302
ltoes -55.8589
791
root -0.858273 18.6712 6.06344 1.15662 -3.97754 -3.62174
lowerback 7.49103 0.0188022 0.349487
upperback -2.21546 0.16985 1.75879
thorax -6.53011 0.107971 1.62153
lowerneck -12.4815 -0.0130659 -2.30387
upperneck 23.5781 -0.148274 2.58288
head 9.49259 0.00663496 1.26466
rclavicle -4.08576e-015 -1.2424e-014
rhumerus -49.5269 -11.1494 -73.5323
rradius 52.9117
rwrist 12.1235
rhand 4.01078 -43.3226
rfingers 7.12502
rthumb 29.426 -71.0123
lclavicle -4.08576e-015 -1.2424e-014
lhumerus -45.3629 13.8883 70.2856
lradius 102.117
lwrist 27.0089
lhand -20.872 -44.7465
lfingers 7.12502
lthumb 5.49798 -14.8378
rfemur 7.98218 3.39025 18.1061
rtibia -3.18055e-015
rfoot -16.3525 -8.36385
rtoes -4.91454
lfemur -2.88655 -5.82293 -10.6702
ltibia 22.3083
lfoot -24.7652 16.0021
ltoes -55.7698
